<svg fill="none" height="15" viewBox="0 0 14 15" width="14" xmlns="http://www.w3.org/2000/svg"><g stroke="#4147d5" stroke-linecap="round" stroke-linejoin="round" stroke-width="1.5"><path d="m2.74773 1.00281c-.76522.76522-1.3018 1.71633-1.56578 2.7472m10.02905-2.7472c.7652.76522 1.3018 1.71633 1.5658 2.7472"/><path d="m4.53615 2.77056c.65345-.65345 1.53973-1.02056 2.46385-1.02056.92413 0 1.8104.36711 2.46385 1.02056.65345.65346 1.02055 1.53973 1.02055 2.46386 0 .79667.1408 1.42298.349 1.91258.2089.49119.7838.65876 1.2128.97634.6403.47405.5165 1.48837-.0161 1.88216 0 0-.8599.7445-5.0301.7445-4.17018 0-5.03011-.7445-5.03011-.7445-.53261-.39379-.65641-1.40811-.01607-1.88216.42898-.31758 1.0039-.48515 1.21276-.97634.20819-.4896.34901-1.11591.34901-1.91258 0-.92413.3671-1.8104 1.02056-2.46386z" fill="#d7e0ff"/><path d="m5.76562 12.708c.25285.4714.75037.7921 1.32276.7921.5724 0 1.06991-.3207 1.32276-.7921"/></g></svg>