<svg fill="none" height="14" viewBox="0 0 15 14" width="15" xmlns="http://www.w3.org/2000/svg"><g fill="#d7e0ff" stroke="#4147d5" stroke-width="1.5"><path d="m8.95346 4.41097c.05928.5541.50494.99976 1.05874 1.06149.4114.04585.8338.08523 1.2644.08523s.853-.03938 1.2644-.08523c.5538-.06173.9994-.50739 1.0587-1.06149.0438-.40904.0807-.82899.0807-1.25712 0-.42814-.0369-.84809-.0807-1.25713-.0593-.5541-.5049-.999754-1.0587-1.061486-.4114-.045852-.8338-.085234-1.2644-.085234s-.853.039382-1.2644.085234c-.5538.061732-.99946.507386-1.05874 1.061486-.04376.40904-.08072.82899-.08072 1.25713 0 .42813.03696.84808.08072 1.25712z"/><path d="m1.4003 4.41097c.05928.5541.50494.99976 1.05876 1.06149.41137.04585.83374.08523 1.26437.08523s.853-.03938 1.26436-.08523c.55383-.06173.99948-.50739 1.05877-1.06149.04376-.40904.08071-.82899.08071-1.25712 0-.42814-.03695-.84809-.08071-1.25713-.05929-.5541-.50494-.999754-1.05877-1.061486-.41136-.045852-.83373-.085234-1.26436-.085234s-.853.039382-1.26437.085234c-.55382.061732-.99948.507386-1.05876 1.061486-.04376.40904-.08072.82899-.08072 1.25713 0 .42813.03696.84808.08072 1.25712z"/><path d="m1.4003 12.1032c.05928.5541.50494.9998 1.05876 1.0615.41137.0459.83374.0853 1.26437.0853s.853-.0394 1.26436-.0853c.55383-.0617.99948-.5074 1.05877-1.0615.04376-.409.08071-.829.08071-1.2571s-.03695-.84808-.08071-1.25712c-.05929-.5541-.50494-.99975-1.05877-1.06149-.41136-.04585-.83373-.08523-1.26436-.08523s-.853.03938-1.26437.08523c-.55382.06174-.99948.50739-1.05876 1.06149-.04376.40904-.08072.82902-.08072 1.25712s.03696.8481.08072 1.2571z"/><path d="m8.95346 12.1032c.05928.5541.50494.9998 1.05874 1.0615.4114.0459.8338.0853 1.2644.0853s.853-.0394 1.2644-.0853c.5538-.0617.9994-.5074 1.0587-1.0615.0438-.409.0807-.829.0807-1.2571s-.0369-.84808-.0807-1.25712c-.0593-.5541-.5049-.99975-1.0587-1.06149-.4114-.04585-.8338-.08523-1.2644-.08523s-.853.03938-1.2644.08523c-.5538.06174-.99946.50739-1.05874 1.06149-.04376.40904-.08072.82902-.08072 1.25712s.03696.8481.08072 1.2571z"/></g></svg>