<svg fill="none" height="14" viewBox="0 0 15 14" width="15" xmlns="http://www.w3.org/2000/svg"><g stroke="#4147d5" stroke-linecap="round" stroke-linejoin="round" stroke-width="1.5"><path d="m7.5 13.25c3.4518 0 6.25-2.7982 6.25-6.25 0-3.45178-2.7982-6.25-6.25-6.25-3.45178 0-6.25 2.79822-6.25 6.25 0 3.4518 2.79822 6.25 6.25 6.25z" fill="#d7e0ff"/><path d="m10.0481 5.55767c-.13274 0-.24036-.10762-.24036-.24038s.10762-.24039.24036-.24039"/><path d="m10.0481 5.5577c.1328 0 .2404-.10762.2404-.24038s-.1076-.24039-.2404-.24039"/><path d="m4.95193 5.55767c-.13276 0-.24038-.10762-.24038-.24038s.10762-.24039.24038-.24039"/><path d="m4.95197 5.5577c.13276 0 .24038-.10762.24038-.24038s-.10762-.24039-.24038-.24039"/><path d="m4.5 8.5h6"/></g></svg>