<svg fill="none" height="15" viewBox="0 0 14 15" width="14" xmlns="http://www.w3.org/2000/svg"><g stroke="#4147d5" stroke-width="1.5"><path d="m1.09195 11.1499c.16134 1.4393 1.33128 2.5822 2.778 2.6519.99995.0481 2.02144.0731 3.13008.0731s2.13012-.025 3.13007-.0731c1.4467-.0697 2.6167-1.2126 2.778-2.6519.1087-.9694.1978-1.96314.1978-2.97549 0-1.01234-.0891-2.00612-.1978-2.97544-.1613-1.43938-1.3313-2.58223-2.778-2.6519-.99995-.04816-2.02143-.07319-3.13007-.07319s-2.13013.02503-3.13008.07319c-1.44672.06967-2.61666 1.21252-2.778 2.6519-.108646.96932-.197785 1.9631-.197785 2.97544 0 1.01235.089139 2.00609.197785 2.97549z" fill="#d7e0ff"/><g stroke-linecap="round"><path d="m4.75348 1.375v2.53918"/><path d="m9.23981 1.375v2.53918"/></g></g></svg>