<svg fill="none" height="14" viewBox="0 0 14 14" width="14" xmlns="http://www.w3.org/2000/svg"><path d="m.959867 10.2685c.154133 1.4407 1.312833 2.5994 2.752793 2.7599 1.06955.1192 2.16771.2216 3.28734.2216s2.21779-.1024 3.2873-.2216c1.44-.1605 2.5987-1.3192 2.7528-2.7599.1138-1.06348.2099-2.15535.2099-3.2685 0-1.11316-.0961-2.20502-.2099-3.26853-.1541-1.44065-1.3128-2.59936-2.7528-2.759861-1.06951-.119217-2.16767-.221609-3.2873-.221609s-2.21779.102392-3.28734.221609c-1.43996.160501-2.59866 1.319211-2.752793 2.759861-.113784 1.06351-.209867 2.15537-.209867 3.26853 0 1.11315.096084 2.20502.209867 3.2685z" fill="#fff"/><g stroke="#4147d5" stroke-width="1.5"><path d="m.959867 10.2685c.154133 1.4407 1.312833 2.5994 2.752793 2.7599 1.06955.1192 2.16771.2216 3.28734.2216s2.21779-.1024 3.2873-.2216c1.44-.1605 2.5987-1.3192 2.7528-2.7599.1138-1.06348.2099-2.15535.2099-3.2685 0-1.11316-.0961-2.20502-.2099-3.26853-.1541-1.44065-1.3128-2.59936-2.7528-2.759861-1.06951-.119217-2.16767-.221609-3.2873-.221609s-2.21779.102392-3.28734.221609c-1.43996.160501-2.59866 1.319211-2.752793 2.759861-.113784 1.06351-.209867 2.15537-.209867 3.26853 0 1.11315.096084 2.20502.209867 3.2685z"/><path d="m8.75 6.5c.9665 0 1.75-.7835 1.75-1.75s-.7835-1.75-1.75-1.75-1.75.7835-1.75 1.75.7835 1.75 1.75 1.75z" fill="#d7e0ff" stroke-linecap="round" stroke-linejoin="round"/><path d="m3.71266 13.0284c-1.43995-.1605-2.59865-1.3192-2.752787-2.7599-.093493-.87383-.175035-1.76683-.201145-2.67505.407212-.06329.818892-.09456 1.231272-.09346 1.74452-.03945 3.44631.54221 4.80173 1.6412 1.25706 1.01921 2.14035 2.42191 2.51878 3.98831-.75809.0706-1.52907.1205-2.3105.1205-1.11964 0-2.2178-.1024-3.28735-.2216z" fill="#d7e0ff" stroke-linecap="round" stroke-linejoin="round"/><path d="m9.31051 13.1295c.32809-.0306.65377-.0651.97679-.1011 1.44-.1605 2.5987-1.3192 2.7528-2.7599.0171-.1599.0339-.3205.0499-.4817-.6831-.19052-1.3896-.28718-2.1-.28678-1.07607-.00234-2.14124.21546-3.13001.63998v.0664c.69312.8498 1.19075 1.8479 1.45052 2.9231z" fill="#d7e0ff" stroke-linecap="round" stroke-linejoin="round"/></g></svg>