<svg fill="none" height="15" viewBox="0 0 14 15" width="14" xmlns="http://www.w3.org/2000/svg"><path d="m1.43088 11.8466c.05544.9641.81846 1.73 1.78363 1.7635 2.24113.0776 4.96292-.0042 6.37251-.0592.53218-.0208.94888-.4592.94888-.9917v-7.53893c0-.53256-.4167-.97098-.94888-.99174-1.59015-.06203-4.8502-.15823-7.20631-.02105-.48206.02806-.86107.41185-.89584.89347-.17032 2.35918-.18831 4.60946-.05399 6.94565z" fill="#d7e0ff" stroke="#4147d5" stroke-linejoin="round" stroke-width="1.5"/><path d="m1.76887 4.28029c-.00024.0002.00023-.00024 0 0 1.54465-2.34459 4.82551-3.367735 7.61009-2.84282v2.58312c-1.65316-.06172-4.74067-.14456-6.99826-.01311-.23876.0139-.45294.11571-.61183.27281z" fill="#fff"/><g stroke="#4147d5" stroke-linejoin="round" stroke-width="1.5"><path d="m1.76887 4.28029c.00023-.00024-.00024.0002 0 0zm0 0c1.54465-2.34459 4.82551-3.367735 7.61009-2.84282v2.58312c-1.65316-.06172-4.74067-.14456-6.99826-.01311-.23876.0139-.45294.11571-.61183.27281z"/><circle cx="5.93896" cy="7.8125" fill="#fff" r="1.5"/><path d="m7.28442 11.2726h-2.69091" stroke-linecap="round"/></g></svg>