<svg xmlns="http://www.w3.org/2000/svg" xmlns:xlink="http://www.w3.org/1999/xlink" width="500" zoomAndPan="magnify" viewBox="0 0 375 374.999991" height="500" preserveAspectRatio="xMidYMid meet" version="1.0"><defs><g/><clipPath id="1d6cba6475"><path d="M 14 39 L 362 39 L 362 336.429688 L 14 336.429688 Z M 14 39 " clip-rule="nonzero"/></clipPath><clipPath id="41a6aea62e"><path d="M 52 87 L 343.683594 87 L 343.683594 276.417969 L 52 276.417969 Z M 52 87 " clip-rule="nonzero"/></clipPath><clipPath id="9db8f32e80"><path d="M 127.40625 87.160156 L 268.671875 87.160156 C 310.09375 87.160156 343.671875 120.738281 343.671875 162.160156 L 343.671875 201.417969 C 343.671875 242.839844 310.09375 276.417969 268.671875 276.417969 L 127.40625 276.417969 C 85.984375 276.417969 52.40625 242.839844 52.40625 201.417969 L 52.40625 162.160156 C 52.40625 120.738281 85.984375 87.160156 127.40625 87.160156 Z M 127.40625 87.160156 " clip-rule="nonzero"/></clipPath><clipPath id="1180b307f1"><path d="M 106 44 L 338 44 L 338 171 L 106 171 Z M 106 44 " clip-rule="nonzero"/></clipPath><clipPath id="a2f1ba256a"><path d="M 100.480469 66.480469 L 330.367188 38.675781 L 343.699219 148.886719 L 113.808594 176.6875 Z M 100.480469 66.480469 " clip-rule="nonzero"/></clipPath><clipPath id="c0092ff464"><path d="M 155.582031 59.816406 L 275.238281 45.34375 C 289.851562 43.574219 304.570312 47.6875 316.15625 56.769531 C 327.738281 65.855469 335.238281 79.167969 337.007812 93.78125 C 338.773438 108.398438 334.664062 123.117188 325.582031 134.699219 C 316.496094 146.285156 303.183594 153.785156 288.566406 155.554688 L 168.914062 170.023438 C 154.296875 171.792969 139.578125 167.683594 127.996094 158.597656 C 116.410156 149.511719 108.910156 136.199219 107.144531 121.585938 C 105.375 106.96875 109.484375 92.25 118.570312 80.667969 C 127.65625 69.082031 140.96875 61.582031 155.582031 59.816406 Z M 155.582031 59.816406 " clip-rule="nonzero"/></clipPath><clipPath id="b847aa0d2e"><path d="M 19 45 L 291 45 L 291 171 L 19 171 Z M 19 45 " clip-rule="nonzero"/></clipPath><clipPath id="7eb06d3ebc"><path d="M 15.679688 58.300781 L 287.230469 42.0625 L 294.148438 157.730469 L 22.597656 173.96875 Z M 15.679688 58.300781 " clip-rule="nonzero"/></clipPath><clipPath id="f1ff9ecea6"><path d="M 73.515625 54.839844 L 229.023438 45.542969 C 244.363281 44.625 259.4375 49.839844 270.929688 60.035156 C 282.425781 70.234375 289.398438 84.578125 290.316406 99.917969 C 291.234375 115.257812 286.019531 130.332031 275.824219 141.828125 C 265.625 153.320312 251.277344 160.292969 235.941406 161.210938 L 80.433594 170.511719 C 65.09375 171.429688 50.019531 166.214844 38.523438 156.015625 C 27.027344 145.820312 20.054688 131.472656 19.136719 116.132812 C 18.222656 100.796875 23.433594 85.722656 33.632812 74.226562 C 43.828125 62.730469 58.175781 55.757812 73.515625 54.839844 Z M 73.515625 54.839844 " clip-rule="nonzero"/></clipPath><clipPath id="4ecaaed44e"><path d="M 19 83 L 291 83 L 291 209 L 19 209 Z M 19 83 " clip-rule="nonzero"/></clipPath><clipPath id="f1ebaedcb3"><path d="M 15.679688 96.1875 L 287.230469 79.949219 L 294.148438 195.621094 L 22.597656 211.859375 Z M 15.679688 96.1875 " clip-rule="nonzero"/></clipPath><clipPath id="ceb5aba30b"><path d="M 73.515625 92.730469 L 229.023438 83.429688 C 244.363281 82.515625 259.4375 87.726562 270.929688 97.925781 C 282.425781 108.121094 289.398438 122.46875 290.316406 137.808594 C 291.234375 153.144531 286.019531 168.222656 275.824219 179.714844 C 265.625 191.210938 251.277344 198.183594 235.941406 199.101562 L 80.433594 208.398438 C 65.09375 209.316406 50.019531 204.105469 38.523438 193.90625 C 27.027344 183.707031 20.054688 169.363281 19.136719 154.023438 C 18.222656 138.683594 23.433594 123.609375 33.632812 112.117188 C 43.828125 100.621094 58.175781 93.648438 73.515625 92.730469 Z M 73.515625 92.730469 " clip-rule="nonzero"/></clipPath><clipPath id="048d4a36ee"><path d="M 24 156 L 296 156 L 296 282 L 24 282 Z M 24 156 " clip-rule="nonzero"/></clipPath><clipPath id="e7d68fe002"><path d="M 20.851562 169.382812 L 292.402344 153.144531 L 299.320312 268.8125 L 27.769531 285.050781 Z M 20.851562 169.382812 " clip-rule="nonzero"/></clipPath><clipPath id="e1eda1d573"><path d="M 78.6875 165.921875 L 234.195312 156.625 C 249.535156 155.707031 264.609375 160.921875 276.101562 171.117188 C 287.597656 181.316406 294.570312 195.660156 295.488281 211 C 296.40625 226.339844 291.191406 241.414062 280.996094 252.910156 C 270.796875 264.402344 256.449219 271.375 241.113281 272.292969 L 85.601562 281.59375 C 70.265625 282.507812 55.191406 277.296875 43.695312 267.097656 C 32.199219 256.902344 25.226562 242.554688 24.308594 227.214844 C 23.394531 211.878906 28.605469 196.800781 38.804688 185.308594 C 49 173.8125 63.347656 166.839844 78.6875 165.921875 Z M 78.6875 165.921875 " clip-rule="nonzero"/></clipPath><clipPath id="9f7a8093c9"><path d="M 31 95 L 303 95 L 303 221 L 31 221 Z M 31 95 " clip-rule="nonzero"/></clipPath><clipPath id="47a044b79f"><path d="M 27.679688 108.1875 L 299.230469 91.949219 L 306.148438 207.621094 L 34.597656 223.859375 Z M 27.679688 108.1875 " clip-rule="nonzero"/></clipPath><clipPath id="5b6d517679"><path d="M 85.515625 104.730469 L 241.023438 95.429688 C 256.363281 94.515625 271.4375 99.726562 282.929688 109.925781 C 294.425781 120.121094 301.398438 134.46875 302.316406 149.808594 C 303.234375 165.144531 298.019531 180.222656 287.824219 191.714844 C 277.625 203.210938 263.277344 210.183594 247.941406 211.101562 L 92.433594 220.398438 C 77.09375 221.316406 62.019531 216.105469 50.523438 205.90625 C 39.027344 195.707031 32.054688 181.363281 31.136719 166.023438 C 30.222656 150.683594 35.433594 135.609375 45.632812 124.117188 C 55.828125 112.621094 70.175781 105.648438 85.515625 104.730469 Z M 85.515625 104.730469 " clip-rule="nonzero"/></clipPath><clipPath id="2d63265869"><path d="M 24 119 L 296 119 L 296 245 L 24 245 Z M 24 119 " clip-rule="nonzero"/></clipPath><clipPath id="96ca89f999"><path d="M 20.851562 132.0625 L 292.402344 115.824219 L 299.320312 231.492188 L 27.769531 247.730469 Z M 20.851562 132.0625 " clip-rule="nonzero"/></clipPath><clipPath id="ed21830403"><path d="M 78.6875 128.601562 L 234.195312 119.304688 C 249.535156 118.386719 264.609375 123.601562 276.101562 133.796875 C 287.597656 143.996094 294.570312 158.339844 295.488281 173.679688 C 296.40625 189.019531 291.191406 204.09375 280.996094 215.589844 C 270.796875 227.082031 256.449219 234.054688 241.113281 234.972656 L 85.601562 244.273438 C 70.265625 245.191406 55.191406 239.976562 43.695312 229.777344 C 32.199219 219.582031 25.226562 205.234375 24.308594 189.898438 C 23.394531 174.558594 28.605469 159.484375 38.804688 147.988281 C 49 136.492188 63.347656 129.519531 78.6875 128.601562 Z M 78.6875 128.601562 " clip-rule="nonzero"/></clipPath><clipPath id="9c6ff8142b"><path d="M 83 253 L 145 253 L 145 314 L 83 314 Z M 83 253 " clip-rule="nonzero"/></clipPath><clipPath id="1829f229dd"><path d="M 103.441406 236.503906 L 160.953125 273.035156 L 124.421875 330.546875 L 66.910156 294.015625 Z M 103.441406 236.503906 " clip-rule="nonzero"/></clipPath><clipPath id="26d4b0930b"><path d="M 136.726562 261.484375 L 143.933594 293.785156 C 145.195312 299.445312 141.628906 305.058594 135.96875 306.320312 L 103.667969 313.527344 C 98.007812 314.789062 92.398438 311.222656 91.136719 305.5625 L 83.929688 273.265625 C 82.667969 267.605469 86.230469 261.992188 91.890625 260.730469 L 124.191406 253.523438 C 129.851562 252.261719 135.464844 255.828125 136.726562 261.484375 Z M 136.726562 261.484375 " clip-rule="nonzero"/></clipPath></defs><g clip-path="url(#1d6cba6475)"><path fill="#ffffff" d="M 279.835938 39.292969 C 278.890625 39.316406 277.953125 39.355469 277 39.425781 L 66.019531 54.878906 C 35.480469 57.113281 12.621094 83.625 14.855469 114.160156 L 23.589844 233.554688 C 25.113281 254.410156 37.953125 271.683594 55.675781 279.828125 L 70.78125 287.863281 C 75.265625 290.636719 80.199219 292.707031 85.445312 294.015625 L 87.628906 324.226562 L 100.8125 336.1875 C 100.8125 336.1875 139.796875 306.390625 156.515625 293.625 L 311.269531 288.296875 C 339.996094 287.308594 362.375 263.375 361.382812 234.648438 L 357.238281 114.992188 C 356.792969 102.140625 351.792969 90.59375 343.792969 81.8125 L 343.617188 81.640625 C 342.144531 80.039062 330.707031 66.996094 324.015625 59.722656 L 323.886719 59.59375 C 313.417969 46.816406 297.425781 38.898438 279.839844 39.292969 Z M 280.011719 46.234375 C 305.730469 45.644531 327.441406 65.152344 329.339844 91.113281 L 338.070312 210.550781 C 340.03125 237.347656 320.125 260.363281 293.324219 262.324219 L 138.878906 273.628906 L 137.789062 273.71875 L 136.914062 274.414062 L 93.609375 310.210938 L 91.210938 277.121094 L 82.347656 277.777344 C 55.546875 279.738281 32.535156 259.875 30.574219 233.074219 L 21.84375 113.636719 C 19.882812 86.835938 39.75 63.78125 66.546875 61.820312 L 277.523438 46.367188 C 278.363281 46.304688 279.183594 46.253906 280.011719 46.234375 Z M 280.011719 46.234375 " fill-opacity="1" fill-rule="nonzero"/></g><g clip-path="url(#41a6aea62e)"><g clip-path="url(#9db8f32e80)"><path fill="#ffffff" d="M 52.40625 87.160156 L 343.683594 87.160156 L 343.683594 276.417969 L 52.40625 276.417969 Z M 52.40625 87.160156 " fill-opacity="1" fill-rule="nonzero"/></g></g><g clip-path="url(#1180b307f1)"><g clip-path="url(#a2f1ba256a)"><g clip-path="url(#c0092ff464)"><path fill="#ffffff" d="M 100.480469 66.480469 L 330.367188 38.675781 L 343.699219 148.886719 L 113.808594 176.6875 Z M 100.480469 66.480469 " fill-opacity="1" fill-rule="nonzero"/></g></g></g><g clip-path="url(#b847aa0d2e)"><g clip-path="url(#7eb06d3ebc)"><g clip-path="url(#f1ff9ecea6)"><path fill="#ffffff" d="M 15.679688 58.300781 L 286.78125 42.089844 L 293.695312 157.757812 L 22.597656 173.96875 Z M 15.679688 58.300781 " fill-opacity="1" fill-rule="nonzero"/></g></g></g><g clip-path="url(#4ecaaed44e)"><g clip-path="url(#f1ebaedcb3)"><g clip-path="url(#ceb5aba30b)"><path fill="#ffffff" d="M 15.679688 96.1875 L 286.78125 79.976562 L 293.695312 195.648438 L 22.597656 211.859375 Z M 15.679688 96.1875 " fill-opacity="1" fill-rule="nonzero"/></g></g></g><g clip-path="url(#048d4a36ee)"><g clip-path="url(#e7d68fe002)"><g clip-path="url(#e1eda1d573)"><path fill="#ffffff" d="M 20.851562 169.382812 L 291.953125 153.171875 L 298.867188 268.839844 L 27.769531 285.050781 Z M 20.851562 169.382812 " fill-opacity="1" fill-rule="nonzero"/></g></g></g><g clip-path="url(#9f7a8093c9)"><g clip-path="url(#47a044b79f)"><g clip-path="url(#5b6d517679)"><path fill="#ffffff" d="M 27.679688 108.1875 L 298.78125 91.976562 L 305.695312 207.648438 L 34.597656 223.859375 Z M 27.679688 108.1875 " fill-opacity="1" fill-rule="nonzero"/></g></g></g><g clip-path="url(#2d63265869)"><g clip-path="url(#96ca89f999)"><g clip-path="url(#ed21830403)"><path fill="#ffffff" d="M 20.851562 132.0625 L 291.953125 115.851562 L 298.867188 231.519531 L 27.769531 247.730469 Z M 20.851562 132.0625 " fill-opacity="1" fill-rule="nonzero"/></g></g></g><g clip-path="url(#9c6ff8142b)"><g clip-path="url(#1829f229dd)"><g clip-path="url(#26d4b0930b)"><path fill="#ffffff" d="M 102.152344 230.730469 L 166.726562 271.746094 L 125.707031 336.320312 L 61.132812 295.304688 Z M 102.152344 230.730469 " fill-opacity="1" fill-rule="nonzero"/></g></g></g><g fill="#000000" fill-opacity="1"><g transform="translate(110.271414, 288.605954)"><g><path d="M 152.203125 -44.71875 L 135.109375 -24.921875 L 127.0625 -25.546875 C 107.445312 -39.617188 91.160156 -51.375 78.203125 -60.8125 C 65.253906 -70.257812 56.265625 -77.296875 51.234375 -81.921875 C 53.179688 -68.734375 54.835938 -57.285156 56.203125 -47.578125 C 57.566406 -37.867188 58.601562 -30.378906 59.3125 -25.109375 C 60.019531 -19.847656 60.375 -17.21875 60.375 -17.21875 L 32.078125 -12.546875 L 26.296875 -18.09375 C 24.492188 -25.445312 22.632812 -33.757812 20.71875 -43.03125 C 18.800781 -52.3125 16.867188 -62.128906 14.921875 -72.484375 C 12.984375 -82.847656 11.101562 -93.382812 9.28125 -104.09375 C 7.457031 -114.8125 5.726562 -125.257812 4.09375 -135.4375 C 2.46875 -145.613281 0.972656 -155.125 -0.390625 -163.96875 C -1.753906 -172.820312 -2.9375 -180.613281 -3.9375 -187.34375 C -4.9375 -194.082031 -5.707031 -199.34375 -6.25 -203.125 C -6.789062 -206.914062 -7.0625 -208.8125 -7.0625 -208.8125 L -0.546875 -212.0625 C -0.546875 -212.0625 1.054688 -212.359375 4.265625 -212.953125 C 7.484375 -213.546875 11.957031 -214.085938 17.6875 -214.578125 C 23.414062 -215.078125 30.113281 -215.078125 37.78125 -214.578125 C 38.050781 -214.628906 38.625 -212.054688 39.5 -206.859375 C 40.382812 -201.671875 41.53125 -194.507812 42.9375 -185.375 C 44.351562 -176.25 45.921875 -165.78125 47.640625 -153.96875 C 53.773438 -164.65625 59.789062 -174.5 65.6875 -183.5 C 71.59375 -192.5 76.894531 -200.253906 81.59375 -206.765625 C 86.300781 -213.285156 90.050781 -218.34375 92.84375 -221.9375 C 95.644531 -225.539062 97.046875 -227.34375 97.046875 -227.34375 L 103.921875 -226.953125 C 103.921875 -226.953125 105.125 -226.253906 107.53125 -224.859375 C 109.945312 -223.472656 113.035156 -221.582031 116.796875 -219.1875 C 120.566406 -216.800781 124.585938 -214.148438 128.859375 -211.234375 C 133.140625 -208.328125 137.222656 -205.335938 141.109375 -202.265625 C 144.992188 -199.191406 148.164062 -196.25 150.625 -193.4375 C 150.84375 -193.289062 149.867188 -191.660156 147.703125 -188.546875 C 145.535156 -185.441406 142.582031 -181.367188 138.84375 -176.328125 C 135.113281 -171.296875 130.957031 -165.695312 126.375 -159.53125 C 121.800781 -153.363281 117.097656 -147.078125 112.265625 -140.671875 C 107.441406 -134.273438 102.851562 -128.148438 98.5 -122.296875 C 94.15625 -116.453125 90.414062 -111.328125 87.28125 -106.921875 C 91.03125 -103.773438 95.203125 -100.0625 99.796875 -95.78125 C 104.398438 -91.5 109.132812 -87.003906 114 -82.296875 C 118.875 -77.585938 123.578125 -73.015625 128.109375 -68.578125 C 132.648438 -64.140625 136.738281 -60.125 140.375 -56.53125 C 144.007812 -52.9375 146.890625 -50.066406 149.015625 -47.921875 C 151.140625 -45.785156 152.203125 -44.71875 152.203125 -44.71875 Z M 152.203125 -44.71875 "/></g></g></g></svg>