<svg fill="none" height="15" viewBox="0 0 15 15" width="15" xmlns="http://www.w3.org/2000/svg"><g stroke="#4147d5" stroke-linejoin="round" stroke-width="1.5"><path d="m4.61253 11.5726h-.61253v-5.72142h.61253l2.43243-4.22064c.22484-.39013.64087-.63054 1.09116-.63054.76493 0 1.35322.67631 1.24726 1.43386l-.23455 1.67685h1.99047c.8702 0 2.6107.87023 2.6107 2.6107s-1.75 5.72139-3.6012 5.72139c-2.43663 0-4.52099-.5801-5.53627-.8702z" fill="#fff" stroke-linecap="round"/><path d="m1.25 5.625c0-.75939.61561-1.375 1.375-1.375s1.375.61561 1.375 1.375v5.75c0 .7594-.61561 1.375-1.375 1.375s-1.375-.6156-1.375-1.375z" fill="#d7e0ff"/></g></svg>