<svg fill="none" height="14" viewBox="0 0 14 14" width="14" xmlns="http://www.w3.org/2000/svg"><g stroke="#4147d5" stroke-linecap="round" stroke-linejoin="round" stroke-width="1.5"><path d="m2.98041 12.5363-1.51682-1.5168c-.699627-.6996-.788732-1.80332-.2104-2.60612.43222-.59997.96042-1.12456 1.56334-1.55265l.28131-.19975c.64716-.4595 1.53141-.38506 2.09263.17617l1.99633 1.99632c.54736.54736.61996 1.40973.17181 2.04093l-.2194.309c-.42809.6029-.95268 1.1311-1.55265 1.5633-.8028.5784-1.90652.4893-2.60615-.2104z" fill="#d7e0ff"/><path d="m12.5364 2.98041-1.5168-1.51682c-.6996-.699627-1.80336-.788732-2.60616-.2104-.59997.43222-1.12456.96042-1.55265 1.56334l-.19975.28131c-.4595.64716-.38506 1.53141.17617 2.09263l1.99632 1.99633c.54737.54736 1.40977.61996 2.04097.17181l.309-.2194c.6029-.42809 1.1311-.95268 1.5633-1.55265.5783-.8028.4892-1.90652-.2104-2.60615z" fill="#d7e0ff"/><path d="m8.86181 5.13831-3.71453 3.71453"/></g></svg>