<svg fill="none" height="15" viewBox="0 0 15 15" width="15" xmlns="http://www.w3.org/2000/svg"><circle cx="7.5" cy="7.5" fill="#d7e0ff" r="6.25" stroke="#4147d5" stroke-width="1.5"/><g fill="#4147d5"><path d="m4.03492 8.73659c.76782 0 1.19971-.4319 1.19971-1.19972 0-.76781-.43189-1.19971-1.19971-1.19971s-1.19971.4319-1.19971 1.19971c0 .76782.43189 1.19972 1.19971 1.19972z"/><path d="m7.43433 8.73659c.76782 0 1.19972-.4319 1.19972-1.19972 0-.76781-.4319-1.19971-1.19972-1.19971-.76781 0-1.19971.4319-1.19971 1.19971 0 .76782.4319 1.19972 1.19971 1.19972z"/><path d="m10.8337 8.73659c.7679 0 1.1998-.4319 1.1998-1.19972 0-.76781-.4319-1.19971-1.1998-1.19971-.7678 0-1.19967.4319-1.19967 1.19971 0 .76782.43187 1.19972 1.19967 1.19972z"/></g></svg>