<svg fill="none" height="14" viewBox="0 0 14 14" width="14" xmlns="http://www.w3.org/2000/svg"><g stroke="#4147d5" stroke-width="1.5"><path d="m1.19089 10.0383c.15223 1.4408 1.31254 2.6013 2.75269 2.76.99536.1096 2.01624.2017 3.05642.2017s2.06106-.0921 3.0564-.2017c1.4402-.1587 2.6005-1.3192 2.7527-2.76.1045-.98955.1909-2.00436.1909-3.0383 0-1.03395-.0864-2.04876-.1909-3.03829-.1522-1.44085-1.3125-2.60131-2.7527-2.75999-.99534-.10966-2.01622-.20172-3.0564-.20172s-2.06106.09206-3.05642.20172c-1.44015.15868-2.60046 1.31914-2.75269 2.75999-.10454.98953-.19089 2.00434-.19089 3.03829 0 1.03394.08635 2.04875.19089 3.0383z" fill="#d7e0ff"/><g stroke-linecap="round" stroke-linejoin="round"><path d="m3.67001 5.91083h1.98483l2.38717 3h1.95799"/><path d="m8.64999 5.91083h1.56001"/></g></g></svg>