<svg fill="none" height="15" viewBox="0 0 15 15" width="15" xmlns="http://www.w3.org/2000/svg"><path d="m12.6636 10.125c0 1.5-.3883 2.4908-1 3.5h-7.50003l-1.64844-1.6484c-.93249-.9325-.72305-2.49646.42194-3.15074l1.2265-.70086v-5.25c0-.9665.78351-1.75 1.75-1.75.9665 0 1.75.7835 1.75 1.75v3.27744c2.09788.21792 5.00003.97256 5.00003 3.97256z" fill="#d7e0ff"/><path d="m11.6636 13.625c.6117-1.0092 1-2 1-3.5 0-3-2.90215-3.75464-5.00003-3.97256v-3.27744c0-.9665-.7835-1.75-1.75-1.75-.96649 0-1.75.7835-1.75 1.75v5.25l-1.2265.70086c-1.14499.65428-1.35443 2.21824-.42194 3.15074l1.64844 1.6484" stroke="#4147d5" stroke-linecap="round" stroke-linejoin="round" stroke-width="1.5"/></svg>