<svg fill="none" height="15" viewBox="0 0 15 15" width="15" xmlns="http://www.w3.org/2000/svg"><path d="m12.9792 1.78683c-.6566-.65659-1.921-.792563-6.70673 1.17243-3.33536 1.3695-5.26197 2.18048-4.92451 4.26791.14819.91666 1.09134 2.32396 2.15198 3.45563v2.0566c0 .8682 1.0303 1.324 1.67267.74l.81106-.7373c.57432.3561 1.12004.6056 1.55519.676 2.08744.3374 2.89844-1.5892 4.26794-4.92454 1.965-4.78569 1.829-6.05013 1.1724-6.70673z" fill="#fff"/><g stroke="#4147d5" stroke-linejoin="round" stroke-width="1.5"><path d="m12.9792 1.78683c-.6566-.65659-1.921-.792563-6.70673 1.17243-3.33536 1.3695-5.26197 2.18048-4.92451 4.26791.14819.91666 1.09134 2.32396 2.15198 3.45563v2.0566c0 .8682 1.0303 1.324 1.67267.74l.81106-.7373c.57432.3561 1.12004.6056 1.55519.676 2.08744.3374 2.89844-1.5892 4.26794-4.92454 1.965-4.78569 1.829-6.05013 1.1724-6.70673z"/><path d="m13.0701 1.88593-9.83825 8.50207c-.94744-1.07313-1.74826-2.32227-1.88383-3.16083-.33746-2.08743 1.58915-2.89841 4.92451-4.26791 4.78567-1.964993 6.05017-1.82902 6.70677-1.17243.0315.03153.0618.06445.0908.0991z" fill="#d7e0ff"/></g></svg>