<svg fill="none" height="15" viewBox="0 0 15 15" width="15" xmlns="http://www.w3.org/2000/svg"><path d="m12.3562 8.36607c-.0313-.03963-.0483-.08874-.0482-.13928v-1.45358c-.0001-.05054.0169-.09965.0482-.13928l.6706-.84018c.1206-.15101.1929-.33489.2074-.52763s-.0295-.38537-.1262-.55273l-.391-.67678c-.0965-.1675-.2412-.30201-.4153-.38596-.1741-.08394-.3695-.11342-.5606-.08458l-1.0625.16161c-.0503.00705-.1014-.00268-.1456-.02768l-1.2589-.72679c-.04436-.02665-.07835-.06758-.09643-.11607l-.39196-.99643c-.07019-.17975-.19293-.33417-.3522-.44311-.15928-.10895-.34769-.16735-.54066-.1676h-.78393c-.19297.00025-.38138.05865-.54066.1676-.15927.10894-.28201.26336-.3522.44311l-.39375.99643c-.01875.04717-.05268.08675-.09642.1125l-1.26161.73036c-.04412.02506-.0953.0348-.14554.02768l-1.05982-.16161c-.19112-.02884-.3865.00064-.5606.08458-.1741.08395-.31884.21846-.41529.38596l-.39107.67678c-.09671.16736-.14069.35999-.12619.55273.01449.19274.08679.37662.20744.52763l.67053.84018c.03138.03963.04838.08874.04822.13928v1.45358c.00016.05054-.01684.09965-.04822.13928l-.67053.84018c-.12065.15101-.19295.33489-.20744.52763-.0145.19274.02948.38542.12619.55272l.39107.6768c.09645.1675.24119.302.41529.3859.1741.084.36948.1135.5606.0846l1.0625-.1616c.05024-.0071.10142.0026.14554.0277l1.25893.7268c.04374.0257.07767.0653.09642.1125l.39197 1c.07018.1797.19292.3342.3522.4431.15927.1089.34769.1674.54066.1676h.78214c.19297-.0002.38138-.0587.54066-.1676.15927-.1089.28201-.2634.3522-.4431l.39196-1c.01876-.0472.05269-.0868.09643-.1125l1.25897-.7268c.0441-.025.0953-.0347.1455-.0277l1.0625.1616c.1911.0289.3865-.0006.5606-.0846.1741-.0839.3188-.2184.4153-.3859l.3911-.6768c.0967-.1673.1406-.35998.1261-.55272-.0144-.19274-.0867-.37662-.2074-.52763zm-4.85621 1.14286c-.39733 0-.78573-.11782-1.1161-.33857-.33036-.22074-.58785-.53449-.73991-.90158-.15205-.36708-.19183-.77101-.11432-1.1607.07752-.3897.26885-.74765.54981-1.02861.28095-.28095.63891-.47228 1.0286-.5498.38969-.07751.79362-.03773 1.16071.11432.36708.15205.68083.40954.90158.73991.22074.33037.33856.71877.33856 1.1161 0 .5328-.21165 1.04378-.5884 1.42053-.37675.37674-.88773.5884-1.42053.5884z" fill="#d7e0ff" stroke="#4147d5" stroke-width="1.5"/></svg>