<svg fill="none" height="15" viewBox="0 0 14 15" width="14" xmlns="http://www.w3.org/2000/svg"><g stroke="#4147d5" stroke-linecap="round" stroke-linejoin="round" stroke-width="1.5"><g fill="#d7e0ff"><path d="m3.28867 9.38813c1.18087 0 2.13816-.95728 2.13816-2.13815 0-1.18088-.95729-2.13816-2.13816-2.13816s-2.13816.95728-2.13816 2.13816c0 1.18087.95729 2.13815 2.13816 2.13815z"/><path d="m10.7113 5.27632c1.1809 0 2.1381-.95729 2.1381-2.13816s-.9572-2.13816-2.1381-2.13816c-1.18089 0-2.13818.95729-2.13818 2.13816s.95729 2.13816 2.13818 2.13816z"/><path d="m10.7113 13.5c1.1809 0 2.1381-.9573 2.1381-2.1382s-.9572-2.13817-2.1381-2.13817c-1.18089 0-2.13818.95727-2.13818 2.13817s.95729 2.1382 2.13818 2.1382z"/></g><path d="m4.28021 5.37837c1.95247-1.10122 2.07096-1.11049 4.29293-1.73726"/><path d="m4.28021 9.12163c1.95247 1.10127 2.07096 1.11047 4.29293 1.73727"/></g></svg>