<svg fill="none" height="15" viewBox="0 0 15 15" width="15" xmlns="http://www.w3.org/2000/svg"><path d="m7.03739 1.37802c.16967-.41371.75555-.41371.92522 0l1.43987 3.51095 3.87732.33987c.4463.03912.6199.60012.2738.88445l-2.6441 2.17203c-.1447.11892-.2109.30879-.1713.49191l.827 3.82907c.0949.4394-.393.7711-.7667.5212l-3.2985-2.2059-3.29854 2.2059c-.37365.2499-.86158-.0818-.76668-.5212l.82704-3.82907c.03955-.18312-.02658-.37299-.17135-.49191l-2.64403-2.17203c-.34612-.28434-.17249-.84533.27372-.88445l3.87736-.33987z" fill="#d7e0ff" stroke="#4147d5" stroke-linejoin="round" stroke-width="1.5"/></svg>