<svg fill="none" height="15" viewBox="0 0 14 15" width="14" xmlns="http://www.w3.org/2000/svg"><g stroke="#4147d5" stroke-width="1.5"><path d="m9.69191 13.6347c.47839-.0479.84959-.4369.87919-.9168.1019-1.6499.1561-3.25802.1561-5.09301s-.0542-3.44312-.1561-5.09302c-.0296-.47989-.4008-.86888-.87919-.91677-2.74895-.27518-5.15769-.27518-7.90665 0-.47842.04789-.849599.43688-.879229.91677-.101866 1.6499-.156031 3.25803-.156031 5.09302s.054165 3.44311.156032 5.09301c.029629.4799.400808.8689.879228.9168 2.74895.2752 5.1577.2752 7.90665 0z" fill="#d7e0ff"/><g fill="#fff"><path d="m10.7272 2.63464h1.4666c.3412 0 .6704.16917.8112.48004.3589.79276.3057 1.54873-.0435 2.71443-.1228.40996-.5077.68148-.9356.68148h-1.2987z"/><path d="m10.7272 6.51062h1.4666c.3412 0 .6704.16917.8112.48003.3589.79277.3057 1.54873-.0435 2.71444-.1228.40991-.5077.68151-.9356.68151h-1.2987z"/><rect height="2.50998" rx=".75" width="4.37431" x="3.55145" y="4.06543"/></g></g></svg>