<svg fill="none" height="14" viewBox="0 0 14 14" width="14" xmlns="http://www.w3.org/2000/svg"><path d="m1.09195 10.525c.16134 1.4394 1.33128 2.5822 2.778 2.6519.99995.0481 2.02144.0732 3.13008.0732s2.13012-.0251 3.13007-.0732c1.4467-.0697 2.6167-1.2125 2.778-2.6519.1087-.96934.1978-1.96312.1978-2.97547 0-1.01234-.0891-2.00612-.1978-2.97543-.1613-1.43939-1.3313-2.58223-2.778-2.65191-.99995-.04816-2.02143-.07319-3.13007-.07319s-2.13013.02503-3.13008.07319c-1.44672.06968-2.61666 1.21252-2.778 2.65191-.108646.96931-.197785 1.96309-.197785 2.97543 0 1.01235.089139 2.00613.197785 2.97547z" fill="#fff"/><path d="m4.75348.75v2.53918" stroke="#4147d5" stroke-linecap="round" stroke-width="1.5"/><path d="m9.23981.75v2.53918" stroke="#4147d5" stroke-linecap="round" stroke-width="1.5"/><path d="m12.6683 6.60474h-11.33647l.15913-4.03478 5.44226-.39472 5.73508.39472z" fill="#d7e0ff"/><g stroke="#4147d5" stroke-width="1.5"><path d="m1.09195 10.525c.16134 1.4394 1.33128 2.5822 2.778 2.6519.99995.0481 2.02144.0732 3.13008.0732s2.13012-.0251 3.13007-.0732c1.4467-.0697 2.6167-1.2125 2.778-2.6519.1087-.96934.1978-1.96312.1978-2.97547 0-1.01234-.0891-2.00612-.1978-2.97543-.1613-1.43939-1.3313-2.58223-2.778-2.65191-.99994-.04816-2.02143-.07319-3.13007-.07319s-2.13013.02503-3.13008.07319c-1.44672.06968-2.61666 1.21252-2.778 2.65191-.108646.96931-.197785 1.96309-.197785 2.97543 0 1.01235.089139 2.00613.197785 2.97547z"/><path d="m1.18634 6.22461h11.68746"/></g></svg>