<svg fill="none" height="14" viewBox="0 0 14 14" width="14" xmlns="http://www.w3.org/2000/svg"><g stroke="#4147d5" stroke-width="1.5"><path d="m4.75348.75v2.53918" stroke-linecap="round"/><path d="m9.23981.75v2.53918" stroke-linecap="round"/><path d="m1.09195 10.5249c.16134 1.4393 1.33128 2.5822 2.778 2.6519.99995.0481 2.02144.0731 3.13008.0731s2.13012-.025 3.13007-.0731c1.4467-.0697 2.6167-1.2126 2.778-2.6519.1087-.96936.1978-1.96314.1978-2.97549 0-1.01234-.0891-2.00612-.1978-2.97544-.1613-1.43938-1.3313-2.58223-2.778-2.6519-.99995-.04816-2.02143-.07319-3.13007-.07319s-2.13013.02503-3.13008.07319c-1.44672.06967-2.61666 1.21252-2.778 2.6519-.108646.96932-.197785 1.9631-.197785 2.97544 0 1.01235.089139 2.00613.197785 2.97549z" fill="#fff"/><path d="m4.13727 6.15625c-.13807 0-.25-.11193-.25-.25s.11193-.25.25-.25"/><path d="m4.13727 6.15625c.13807 0 .25-.11193.25-.25s-.11193-.25-.25-.25"/><path d="m4.13727 9.42188c-.13807 0-.25-.11193-.25-.25 0-.13808.11193-.25.25-.25"/><path d="m4.13727 9.42188c.13807 0 .25-.11193.25-.25 0-.13808-.11193-.25-.25-.25"/><path d="m7 6.15625c-.13807 0-.25-.11193-.25-.25s.11193-.25.25-.25"/><path d="m7 6.15625c.13807 0 .25-.11193.25-.25s-.11193-.25-.25-.25"/><path d="m9.86273 6.15625c-.13807 0-.25-.11193-.25-.25s.11193-.25.25-.25"/><path d="m9.86273 6.15625c.13807 0 .24997-.11193.24997-.25s-.1119-.25-.24997-.25"/></g></svg>