<svg fill="none" height="14" viewBox="0 0 14 14" width="14" xmlns="http://www.w3.org/2000/svg"><g stroke="#4147d5" stroke-linejoin="round" stroke-width="1.5"><path d="m9.30539 1.39566h-4.61079l-1.14434 2.07288c-.22635.01909-.4514.03859-.67507.05791-.95643.08259-1.74375.81949-1.883877 1.7692-.126945.86037-.241313 1.74645-.241313 2.65142s.114368 1.79105.241313 2.65143c.140127.9497.927447 1.6866 1.883877 1.7692 1.37225.1185 2.74634.2366 4.12481.2366s2.75256-.1181 4.1248-.2366c.9564-.0826 1.7438-.8195 1.8839-1.7692.1269-.86038.2413-1.74646.2413-2.65143s-.1144-1.79105-.2413-2.65142c-.1401-.94971-.9275-1.68661-1.8839-1.7692-.225-.01944-.45-.03893-.6751-.05791z" fill="#d7e0ff"/><path d="m7 9.90213c1.24264 0 2.25-1.00736 2.25-2.25s-1.00736-2.25-2.25-2.25-2.25 1.00736-2.25 2.25 1.00736 2.25 2.25 2.25z" fill="#fff" stroke-linecap="round"/></g></svg>