<svg fill="none" height="14" viewBox="0 0 14 14" width="14" xmlns="http://www.w3.org/2000/svg"><g stroke="#4147d5" stroke-width="1.5"><path d="m1.19111 11.8781c.05154.4802.43254.8609.91263.9134 1.56611.1712 3.20649.4064 4.89618.4064s3.33008-.2352 4.89618-.4064c.4801-.0525.8611-.4332.9126-.9134.1675-1.5604.3891-3.19469.3891-4.87812s-.2216-3.31775-.3891-4.87814c-.0515-.4802-.4325-.86087-.9126-.91337-1.5661-.17125-3.20649-.406407-4.89618-.406407s-3.33007.235157-4.89618.406407c-.48009.0525-.86109.43317-.91264.91337-.1675 1.56039-.389098 3.19471-.389098 4.87814s.221598 3.31772.389108 4.87812z" fill="#d7e0ff"/><g stroke-linecap="round" stroke-linejoin="round"><path d="m10.1864 10.2398h-1.89169"/><path d="m4.75928.956573v4.515477c0 .55228.44771 1 1 1h2.49205c.54809 0 .99405-.4412.99994-.98926l.04879-4.540962c-.37124-.065229-1.32661-.131799-2.23685-.131799-.91023 0-1.90581.103545-2.30393.146544z" fill="#fff"/></g></g></svg>