<svg fill="none" height="15" viewBox="0 0 14 15" width="14" xmlns="http://www.w3.org/2000/svg"><path d="m7 13.498c-1.51685 0-2.99287-.1213-4.41353-.2831-.82074-.0934-1.50655-.6931-1.639828-1.5083-.134436-.8223-.196642-1.6731-.196642-2.84867 0-1.17552.062204-2.02627.196638-2.84853.133282-.81523.819092-1.4149 1.639832-1.50837 1.42066-.16181 2.89668-.28304 4.41353-.28304 1.51686 0 2.99287.12123 4.4135.28304.8208.09347 1.5066.69314 1.6399 1.50837.1344.82226.1966 1.67301.1966 2.84853 0 1.17557-.0622 2.02637-.1966 2.84867-.1333.8152-.8191 1.4149-1.6399 1.5083-1.42063.1618-2.89664.2831-4.4135.2831z" fill="#d7e0ff"/><g stroke="#4147d5" stroke-linejoin="round"><path d="m1.99951 4.66304c-.54377.24678-.95311.73622-1.052872 1.34643-.134434.82226-.196638 1.67301-.196638 2.84854 0 1.17549.062206 2.02629.196642 2.84859.133278.8153.819088 1.4149 1.639828 1.5084 1.42066.1618 2.89668.283 4.41353.283 1.51686 0 2.99287-.1212 4.4135-.283.8208-.0935 1.5066-.6931 1.6399-1.5084.1344-.8223.1966-1.6731.1966-2.84859 0-1.17553-.0622-2.02628-.1966-2.84854-.0998-.61021-.5091-1.09965-1.0529-1.34643" stroke-linecap="round" stroke-width="1.5"/><path d="m1.28732 5.22852 4.47638 3.54c.72514.57345 1.74882.57518 2.47589.00417l4.49461-3.52985" stroke-width="1.5"/><path d="m4.69312 3.6012c.84518-1.03159 1.36053-1.54705 2.35119-2.3512.99066.80415 1.50601 1.31961 2.3512 2.3512" stroke-linecap="round" stroke-width="1.71058"/><path d="m7.03552 1.26174v4.27781" stroke-linecap="round" stroke-width="1.5"/></g></svg>