<svg fill="none" height="15" viewBox="0 0 15 15" width="15" xmlns="http://www.w3.org/2000/svg"><g stroke="#4147d5" stroke-linejoin="round" stroke-width="1.5"><path d="m6.73258 3.01913c.02758-.62044.24871-1.22227.41089-1.51913.01814.01059.03739.0218.0577.03363.48322.28136 1.56606.91186 2.42813 1.79521.6015.46845 1.0801 1.24656 1.0801 2.18074 0 .722-.2753 1.30186-.5361 1.85112-.4824 1.01592-.91507 1.92715.5361 3.4394-1.91239.3725-5.62839.9239-5.76134.2904-.2513-1.19733-.0269-1.86382.14296-2.36832.09724-.2888.1766-.52452.13862-.77635-1.15956.44032-1.93527-.56178-2.33191-1.07419-.05709-.07376-.10633-.13737-.14773-.18507.51909-.78353 1.51169-2.00944 2.19806-2.71544.49609-.51027 1.12676-.79666 1.78452-.952z" fill="#fff" stroke-linecap="round"/><path d="m4.82417 8.05566c.60807-.14425.95949-.32779 1.44598-.59005" stroke-linecap="round"/><path d="m11.7647 12.0971c.0582.459.1016.9273.1016 1.4029h-8.64432c0-.4756.04339-.9439.10155-1.4029.12083-.9533.92104-1.6966 1.87848-1.7791.76132-.0655 1.54383-.123 2.34213-.123.79829 0 1.5808.0575 2.34212.123.95744.0825 1.75764.8258 1.87844 1.7791z" fill="#d7e0ff"/></g></svg>