<svg fill="none" height="15" viewBox="0 0 14 15" width="14" xmlns="http://www.w3.org/2000/svg"><g stroke="#4147d5" stroke-linejoin="round" stroke-width="1.5"><path d="m.959867 10.5185c.154133 1.4407 1.312833 2.5994 2.752793 2.7599 1.06955.1192 2.16771.2216 3.28734.2216s2.21779-.1024 3.2873-.2216c1.44-.1605 2.5987-1.3192 2.7528-2.7599.1138-1.06348.2099-2.15535.2099-3.2685 0-1.11316-.0961-2.20502-.2099-3.26853-.1541-1.44065-1.3128-2.59936-2.7528-2.75986-1.06951-.11922-2.16767-.22161-3.2873-.22161s-2.21779.10239-3.28734.22161c-1.43996.1605-2.59866 1.31921-2.752793 2.75986-.113784 1.06351-.209867 2.15537-.209867 3.26853 0 1.11315.096084 2.20502.209867 3.2685z" fill="#d7e0ff"/><path d="m13.2079 8.25h-3.21952c-.55042 0-.98288.46906-1.22545.96482-.26353.53859-.79126 1.03518-1.76441 1.03518s-1.50087-.49659-1.7644-1.03518c-.24257-.49576-.67504-.96482-1.22545-.96482h-3.219485c.031796.83937.099688 1.67123.183307 2.4776.139688 1.347 1.198528 2.4191 2.540558 2.5637 1.12883.1216 2.3046.2087 3.48547.2087 1.18088 0 2.35665-.0871 3.48548-.2087 1.342-.1446 2.4009-1.2167 2.5406-2.5637.0836-.80637.1515-1.63823.1833-2.4776z" fill="#fff"/></g></svg>