<svg fill="none" height="15" viewBox="0 0 14 15" width="14" xmlns="http://www.w3.org/2000/svg"><g stroke="#4147d5" stroke-width="1.5"><path d="m9.79425 2.44909c-.27952-.27951-.24555-.24555-.45063-.43469-.685-.6318-1.75195-.57733-2.45841.03038-.3272.28146-.65789.58846-1.19862 1.1292-.53431.5343-.84345.86657-1.12531 1.1931-.61641.71412-.66191 1.79523-.02622 2.49224.18292.20057.14294.16415.41387.43509.27094.27094.23442.23085.43499.41377.69701.63569 1.77812.59019 2.49224-.02622.32653-.28186.6588-.591 1.1931-1.12531.54074-.54073.84774-.87142 1.12924-1.19862.6077-.70646.6621-1.77341.0303-2.45841-.1891-.20505-.1551-.17106-.43455-.45053z" fill="#d7e0ff"/><path d="m9.07812 6.54688 4.10938 4.10932" stroke-linecap="round" stroke-linejoin="round"/><path d="m1.75 11.75v2h5.5v-2c0-.5523-.44772-1-1-1h-3.5c-.55228 0-1 .4477-1 1z" fill="#d7e0ff"/><path d="m.75 13.75h7.5" stroke-linecap="round"/></g></svg>