<svg fill="none" height="15" viewBox="0 0 14 15" width="14" xmlns="http://www.w3.org/2000/svg"><g stroke="#4147d5" stroke-width="1.5"><path d="m3 11.197-.5 2" stroke-linecap="round"/><path d="m11 11.197.5 2" stroke-linecap="round"/><path d="m7 1.36499c-1.55271 0-3.17652 0-4.53158.25467-.61869.11627-1.10147.59351-1.23616 1.20845-.23226 1.06041-.23226 2.03584-.23226 3.53688 0 1.50105 0 2.47647.23226 3.53688.13469.61493.61747 1.09213 1.23616 1.20843 1.35506.2547 2.97887.2547 4.53158.2547s3.1765 0 4.5316-.2547c.6187-.1163 1.1014-.5935 1.2361-1.20843.2323-1.06041.2323-2.03583.2323-3.53688 0-1.50104 0-2.47647-.2323-3.53688-.1347-.61494-.6174-1.09218-1.2361-1.20845-1.3551-.25467-2.97889-.25467-4.5316-.25467z" fill="#d7e0ff"/><path d="m3.5 5.86499v1" stroke-linecap="round"/><circle cx="8.58061" cy="6.36503" r="1.66667"/><g stroke-linecap="round"><path d="m8.58063 4.69832v-.83333"/><path d="m8.58063 8.86495v-.83333"/><path d="m10.024 5.53166.7217-.41667"/><path d="m6.41564 7.61503.72169-.41667"/><path d="m10.024 7.19832.7217.41667"/><path d="m6.41564 5.11495.72169.41667"/></g></g></svg>