<svg fill="none" height="14" viewBox="0 0 15 14" width="15" xmlns="http://www.w3.org/2000/svg"><g stroke="#4147d5" stroke-linejoin="round" stroke-width="1.5"><path d="m1.78547 11.7264c.36004-1.4329.46453-2.99453.46453-3.4764h10.5c.5945.89181.8577 2.7594.9536 4.0018.0426.5507-.4013.9982-.9536.9982h-2v-2c-1.19839 2-3 2-3 2h-4.88197c-.74338 0-1.26371-.8026-1.08256-1.5236z" fill="#fff"/><path d="m6.13064 5.5c-.21096-.93195-.38064-1.94277-.38064-2.74998 0-1.60002 1.33335-2.00002 2.00002-2.00002s2.00002.4 2.00002 2.00002c0 .80721-.16968 1.81803-.38064 2.74998h2.3806c1.6 0 2 1.33333 2 2 0 .55228-.4477 1-1 1h-10c-.55228 0-1-.44772-1-1 0-.66667.4-2 2-2z" fill="#d7e0ff" stroke-linecap="round"/></g></svg>