<svg fill="none" height="15" viewBox="0 0 14 15" width="14" xmlns="http://www.w3.org/2000/svg"><path d="m5.00546 2.95972c.0343-.8809.61072-1.73523 1.47573-1.90529.17123-.03366.34424-.05443.51881-.05443s.34758.02077.51881.05443c.86501.17006 1.44143 1.02439 1.47573 1.90529.00318.08158.00637.16335.00958.2453.01328.33953.02668.68221.03924 1.02778.01924.5292.44464.9546.97384.97384.3456.01256.6883.02596 1.0278.03924.082.00321.1637.0064.2453.00958.8809.0343 1.7352.61072 1.9053 1.47573.0336.17123.0544.34424.0544.51881s-.0208.34758-.0544.51881c-.1701.86501-1.0244 1.44143-1.9053 1.47573-.0816.00318-.1634.00637-.2453.00958-.3396.01328-.6822.02668-1.0278.03924-.5292.01924-.9546.44464-.97384.97384-.01256.3456-.02596.6883-.03924 1.0278-.00321.082-.00641.1637-.00958.2453-.03431.8809-.61072 1.7352-1.47573 1.9053-.17123.0336-.34424.0544-.51881.0544s-.34758-.0208-.51881-.0544c-.86501-.1701-1.44143-1.0244-1.47573-1.9053-.00318-.0816-.00637-.1633-.00958-.2453-.01328-.3395-.02668-.6822-.03924-1.0278-.01924-.5292-.44464-.9546-.97384-.97384-.34559-.01256-.68829-.02596-1.02784-.03924-.08193-.00321-.16368-.00641-.24524-.00958-.8809-.0343-1.735228-.61072-1.905287-1.47573-.033663-.17123-.054433-.34424-.054433-.51881s.02077-.34758.054432-.51881c.17006-.86501 1.024388-1.44143 1.905288-1.47573.08156-.00318.16331-.00637.24524-.00958.33955-.01328.68225-.02668 1.02784-.03924.5292-.01924.9546-.44464.97384-.97384.01256-.3456.02596-.6883.03924-1.02787.00321-.08192.0064-.16366.00958-.24521z" fill="#d7e0ff" stroke="#4147d5" stroke-linejoin="round" stroke-width="1.5"/></svg>