<svg fill="none" height="15" viewBox="0 0 14 15" width="14" xmlns="http://www.w3.org/2000/svg"><g fill="#d7e0ff" stroke="#4147d5" stroke-linejoin="round" stroke-width="1.5"><path d="m4.86174 13.5643h-2.98458c-.52567 0-.963097-.4069-.986409-.9321-.050591-1.1396-.048981-2.2662.004827-3.4067.022642-.47987.393122-.8718.872012-.90984.78843-.06264 1.48166-.06264 2.27009 0 .47889.03804.84937.42997.87201.90984.06843 1.4503.05244 2.8781-.04795 4.3388z"/><path d="m8.95915 13.5643h-3.9182c-.10843-2.598-.1184-5.13287-.02992-7.71928.01581-.46196.34891-.85616.80696-.91816.8237-.1115 1.54041-.1115 2.36411 0 .45806.062.79116.4562.80696.91816.08849 2.58641.07852 5.12128-.02991 7.71928z"/><path d="m12.0858 13.5643h-2.94753c-.11208-3.76563-.11896-7.43671-.02065-11.19076.01149-.4387.30821-.8247.73873-.90977.86835-.17158 1.61365-.17158 2.48205 0 .4305.08507.7272.47107.7387.90977.0899 3.43093.0919 6.79255.006 10.22046-.0136.5405-.4566.9703-.9973.9703z"/></g></svg>