<svg fill="none" height="15" viewBox="0 0 14 15" width="14" xmlns="http://www.w3.org/2000/svg"><g stroke="#4147d5" stroke-linecap="round" stroke-linejoin="round" stroke-width="1.5"><path d="m.796814 6.99899c0-3.69655 1.550796-5.28079 2.067726-5.80887h8.27096c.5169.52808 2.0677 2.11232 2.0677 5.80887 0 4.22461-4.07309 5.78281-6.14082 6.31091-2.06773-.5281-6.265566-2.0863-6.265566-6.31091z" fill="#d7e0ff"/><g fill="#fff"><path d="m7.00004 8.03243c1.15239 0 2.08659-.9342 2.08659-2.08659s-.9342-2.08659-2.08659-2.08659-2.08659.9342-2.08659 2.08659.9342 2.08659 2.08659 2.08659z"/><path d="m10.4848 11.8444c-1.18034.7899-2.50066 1.23-3.42244 1.4654-.93465-.2387-2.30452-.6879-3.52519-1.4986.22663-.337.50281-.6414.82176-.9021.74533-.6092 1.67835-.942 2.64098-.942.96262 0 1.89565.3328 2.64098.942.32941.2692.61321.5852.84391.9353z"/></g></g></svg>