<svg fill="none" height="14" viewBox="0 0 14 14" width="14" xmlns="http://www.w3.org/2000/svg"><g stroke="#4147d5" stroke-width="1.5"><path d="m2.2481 12.0367c.0339.4815.4126.8667.89359.907 2.64774.222 5.06888.222 7.71661 0 .481-.0403.8597-.4255.8936-.907.2058-2.92331.2058-5.68518 0-8.60852-.0339-.48149-.4125-.8655-.8916-.92436-1.23732-.15201-2.53015-.34757-3.8603-.34757s-2.62298.19556-3.86033.34757c-.47908.05886-.85768.44287-.89157.92436-.2058 2.92334-.2058 5.6852 0 8.60852z" fill="#fff"/><path d="m5.09375 6.51562h3.8125" stroke-linecap="round"/><path d="m5.09375 9.42188h2.30065" stroke-linecap="round"/><rect fill="#d7e0ff" height="2.96875" rx="1.48438" stroke-linejoin="round" width="5.65625" x="4.17188" y=".75"/></g></svg>