<svg fill="none" height="14" viewBox="0 0 14 14" width="14" xmlns="http://www.w3.org/2000/svg"><path d="m1.01394 7.99144c.06331.47773.45013.85165.9299.89698 1.15589.10921 2.36266.24689 3.6038.24689s2.4479-.13768 3.60379-.24689c.47977-.04533.86657-.41925.92987-.89698.123-.92778.2639-1.89383.2639-2.88613 0-.99229-.1409-1.95834-.2639-2.88612-.0633-.47773-.4501-.85165-.92987-.89698-1.15589-.10921-2.36265-.24689-3.60379-.24689s-2.44791.13768-3.6038.24689c-.47977.04533-.86659.41925-.9299.89698-.122945.92778-.263909 1.89383-.263909 2.88612 0 .9923.140964 1.95835.263909 2.88613z" fill="#d7e0ff" stroke="#4147d5" stroke-width="1.5"/><path d="m3.91873 11.2414c.06331.4778.45013.8517.9299.897 1.15589.1092 2.36265.2469 3.60379.2469s2.44788-.1377 3.60378-.2469c.4798-.0453.8666-.4192.9299-.897.123-.9277.2639-1.89379.2639-2.88609 0-.99229-.1409-1.95834-.2639-2.88612-.0633-.47773-.4501-.85165-.9299-.89698-1.1559-.10921-2.36264-.24689-3.60378-.24689s-2.4479.13768-3.60379.24689c-.47977.04533-.86659.41925-.9299.89698-.12295.92778-.26391 1.89383-.26391 2.88612 0 .9923.14096 1.95839.26391 2.88609z" fill="#fff"/><path d="m13.1926 9.53191c-.7923-.71594-1.6652-1.20659-2.5559-1.20659-1.83125 0-3.58708 2.07388-4.72242 3.91568.82564.0775 1.67354.1443 2.53812.1443 1.06373 0 2.1022-.1011 3.105-.1988.1673-.0163.3336-.0325.4988-.0481.4798-.0453.8666-.4192.9299-.897.0101-.076.0203-.1523.0305-.2289.0647-.4841.1307-.9782.176-1.48059z" fill="#d7e0ff" stroke="#4147d5" stroke-linecap="round" stroke-linejoin="round" stroke-width="1.5"/><path d="m6.5 7.82532c.55228 0 1-.44772 1-1 0-.55229-.44772-1-1-1s-1 .44771-1 1c0 .55228.44772 1 1 1z" fill="#4147d5"/><path d="m3.91873 11.2414c.06331.4778.45013.8517.9299.897 1.15589.1092 2.36265.2469 3.60379.2469s2.44788-.1377 3.60378-.2469c.4798-.0453.8666-.4192.9299-.897.123-.9277.2639-1.89379.2639-2.88609 0-.99229-.1409-1.95834-.2639-2.88612-.0633-.47773-.4501-.85165-.9299-.89698-1.1559-.10921-2.36264-.24689-3.60378-.24689s-2.4479.13768-3.60379.24689c-.47977.04533-.86659.41925-.9299.89698-.12295.92778-.26391 1.89383-.26391 2.88612 0 .9923.14096 1.95839.26391 2.88609z" stroke="#4147d5" stroke-width="1.5"/></svg>