<svg fill="none" height="14" viewBox="0 0 15 14" width="15" xmlns="http://www.w3.org/2000/svg"><path d="m9.89704 7.00869c1.32486 0 2.39886-1.07402 2.39886-2.39888s-1.074-2.39887-2.39886-2.39887-2.39887 1.07401-2.39887 2.39887 1.07401 2.39888 2.39887 2.39888z" fill="#d7e0ff"/><path d="m9.89703 7.0088c1.32487 0 2.39887-1.07402 2.39887-2.39888 0-1.02486-.6427-1.89961-1.547-2.24322" stroke="#4147d5" stroke-linecap="round" stroke-linejoin="round" stroke-width="1.5"/><g fill="#d7e0ff"><path d="m13.1736 10.3786c1.1734.7815.3811 2.2888-1.0288 2.2888h-5.29436c-1.40985 0-2.2022-1.5073-1.02879-2.2888 1.05252-.70101 2.31654-1.10956 3.67599-1.10956 1.35946 0 2.62346.40855 3.67596 1.10956z"/><path d="m5.86049 6.53323c1.43613 0 2.60035-1.16422 2.60035-2.60035 0-1.43614-1.16422-2.60036-2.60035-2.60036-1.43614 0-2.60036 1.16422-2.60036 2.60036 0 1.43613 1.16422 2.60035 2.60036 2.60035z" stroke="#4147d5" stroke-linecap="round" stroke-linejoin="round" stroke-width="1.5"/><path d="m9.84353 10.1866c1.27197.8472.41307 2.4811-1.1152 2.4811h-5.73907c-1.52826 0-2.387152-1.6339-1.11519-2.4811 1.14093-.75986 2.51111-1.20271 3.98473-1.20271s2.84381.44285 3.98473 1.20271z" stroke="#4147d5" stroke-width="1.5"/></g><path d="m8.50726 12.6676h3.63754c1.4099 0 2.2022-1.5073 1.0288-2.2889-.324-.2158-.6681-.40385-1.0288-.56083" stroke="#4147d5" stroke-linecap="round" stroke-width="1.5"/></svg>